<?xml version="1.0" encoding="utf-8"?>
<!-- Generator: Adobe Illustrator 21.1.0, SVG Export Plug-In . SVG Version: 6.00 Build 0)  -->
<svg version="1.1" id="_x30_" xmlns="http://www.w3.org/2000/svg" xmlns:xlink="http://www.w3.org/1999/xlink" x="0px" y="0px"
	 viewBox="0 0 128 128" style="enable-background:new 0 0 128 128;" xml:space="preserve">
<style type="text/css">
	.st0{fill:#D0D6C5;}
	.st1{fill:#414F44aa;}
	.st2{fill:#A19970;}
	.st3{fill:#688559;}
</style>
<g>
	<rect y="0" class="st0" width="128" height="128"/>
	<path class="st1" d="M39.359,89.434c3.664,0.666,5.5-0.131,6.678-2.095c1.179-1.964,2.226-4.059,4.714-4.19
		c2.488-0.131,1.964,2.357,3.536,4.059c1.571,1.702,3.143-0.262,5.5-1.048c2.357-0.786,5.172,1.015,3.994,3.503
		c-1.178,2.488-2.684,2.389-6.613,2.913c-3.928,0.524-5.107,2.357-6.94,5.631c-1.833,3.274-5.107,3.798-9.297,1.048
		s-5.238-3.012-8.119-1.571c-2.881,1.44-3.405,2.881-6.285,3.798c-2.881,0.917-4.714,1.179-6.024-0.524
		c-1.309-1.702-1.178-4.059-3.535-3.797s-3.797,2.095-7.333,1.178c-3.536-0.917-3.928-3.536-2.619-5.369
		c1.309-1.833,1.44-3.667,4.845-3.143c3.405,0.524,5.238,0.655,6.94-0.655c1.702-1.309,3.274-3.928,6.024-5.238
		c2.75-1.31,4.714-0.917,7.595,1.178C35.3,87.207,36.478,88.91,39.359,89.434z"/>
	<path class="st2" d="M80.974,102.619c3.973-0.283,5.925-3.442,8.509-4.02c2.584-0.578,3.223-1.171,6.364-2.774
		c4.064-2.075,6.508-3.891,6.76-5.878c0.252-1.987-1.558-3.434-4.972-3.453c-3.415-0.019-6.491,3.159-11.194,4.334
		c-2.823,0.706-1.267-1.112-4.449-1.542c-3.181-0.43-2.089-1.689,0.439-3.051c2.529-1.362,2.716-6.101-1.576-5.533
		c-4.292,0.568-3.993,1.072-6.773-1.092c-2.78-2.165-3.405,0.111-5.701,1.063s-4.609-0.197-6.447,1.641
		c-1.838,1.838,0.643,3.499,3.116,3.191c2.472-0.308,3.564,0.271,5.597,1.176c2.034,0.905,2.902,0.187,3.937,1.82
		c1.035,1.633-0.392,3.704-3.863,2.901c-3.47-0.803-5.551-2.361-7.025-0.943c-1.474,1.418-0.346,2.519-3.602,2.882
		c-3.256,0.363-4.022,4.356-1.4,4.301c2.622-0.056,4.824-0.475,8.583,0.701c3.76,1.176,9.712,3.64,9.712,3.64
		S78.623,102.787,80.974,102.619z"/>
	<path class="st1" d="M89.888,53.736c-3.007-0.675-4.329-2.18-8.337-3.196c-4.008-1.016-6.676,2.504-5.664,5.584
		c1.011,3.08,3.005,3.149,6.35,3.42c3.346,0.271,5.304,1.337,6.434,4.472c1.13,3.136,2.357,5.45,5.48,6.194
		c3.123,0.745,4.097-2.559,3.748-4.894c-0.349-2.335,1.281-2.725,3.679-2.9s5.773-4.35,3.849-6.412
		c-1.924-2.062-4.354-2.362-8.396-2.382C92.99,53.602,92.244,54.264,89.888,53.736z"/>
	<path class="st2" d="M37.188,2.872C38.15,1.863,38.053,1.066,37.593,0h-5.767C33.462,3.11,36.054,4.06,37.188,2.872z"/>
	<path class="st2" d="M60.231,119.973c-1.552-2.326-0.032-2.885-3.6-3.504c-3.568-0.619-6.203,1.554-8.514,1.446
		c-2.311-0.108-3.801-2.092-5.415-3.984c-1.614-1.892-2.746-1.72-5.258-1.192c-2.512,0.529-3.674,3.243-4.992,5.493
		c-1.317,2.25-3.721,2.018-5.551,2.422c-1.83,0.404-2.666,3.165-0.231,3.18s3.753,0.478,4.499,2.635
		c0.193,0.558,0.415,1.068,0.659,1.53h5.767c-0.163-0.377-0.37-0.788-0.594-1.254c-0.854-1.783-0.064-3.443,3.551-2.375
		c3.148,0.931,3.743,2.086,5.495,3.629h14.348c0.264-0.147,0.555-0.334,0.88-0.567C64.235,125.307,61.783,122.299,60.231,119.973z"
		/>
	<path class="st1" d="M39.585,37.507c-0.891-2.575-2.464-3.128-5.372-3.146c-2.907-0.017-1.909-3.314,0.276-3.796
		s5.056-0.206,6.628-2.892c1.573-2.686,2.96-5.927,5.96-6.558c3-0.631,4.352-0.835,6.278,1.423c1.927,2.258,3.706,4.628,6.465,4.756
		c2.759,0.128,5.906-2.466,10.166-1.727c4.26,0.739,2.445,1.406,4.298,4.183c1.853,2.777,4.781,6.368,1.245,8.907
		c-3.536,2.539-3.63,0.409-8.203,0.948c-4.574,0.539-5.962,2.855-8.944,0.578c-2.982-2.276-3.28-3.906-7.595-5.182
		s-5.259,0.706-4.239,2.835c1.02,2.129,1.779,3.296,0.224,4.926C45.217,44.393,41.365,42.654,39.585,37.507z"/>
	<path class="st1" d="M62.151,78.508c-2.21,0.349-3.281,2.815-5.472,2.935c-2.192,0.12-3.141-2.253-6.316-2.518
		c-3.175-0.265-7.992,3.523-10.434,2.498c-2.442-1.025-2.204-4.553-4.115-4.262c-8.671,1.323-6.744-8.065-4.115-7.936
		c8.965,0.441,8.965-4.262,13.373-3.527c2.725,0.454,2.811,3.878,4.978,3.526c0.9-0.146,3.812-0.556,2.223-3.232
		c-1.122-1.89,0.647-5.713,4.85-3.086c2.351,1.47,1.176,5.878,4.556,7.789c2.169,1.226,3.576,0.899,6.463,1.767
		c2.887,0.867,4.439,2.206,4.845,4.336c0.406,2.129-2.267,3.613-5.821,2.712C63.612,78.608,64.121,78.197,62.151,78.508z"/>
	<path class="st1" d="M75.751,107.29c-2.089,0.337-5.238,0.524-7.988,0.393c-2.75-0.131-4.321,4.321-0.917,5.762
		c3.405,1.44,4.059,0.262,5.369,2.357c1.309,2.095,1.964,3.535,4.583,1.702c2.619-1.833,3.798-4.059,7.071-3.798
		c3.274,0.262,3.666,1.833,6.94,4.452c3.274,2.619,4.714,2.095,5.369,0.131c0.655-1.964,0.131-5.238,2.75-5.762
		c2.619-0.524,5.369-0.393,7.202-1.964c1.833-1.571,0.524-3.405-1.964-3.143s-5.762-1.964-7.464-2.75s-4.059,0.131-6.678,1.048
		c-2.619,0.917-3.667-3.928-7.726-2.881C78.239,103.885,79.81,106.635,75.751,107.29z"/>
	<path class="st2" d="M128,98.762v24.524c-0.11,0.734-0.277,1.49-0.554,2.289c-0.943,2.72-4.906,1.753-6.569-1.824
		c-1.661-3.577-2.449-4.637-4.21-4.752c-2.919-0.191-4.261,4.034-8.284,2.663c-4.023-1.371-2.792-4.238-1.384-6.613
		c1.406-2.376,7.383-3.873,10.3-4.405c2.917-0.532,5.632-1.034,3.768-4.581c-1.864-3.548,0.146-6.735,3.64-7.558
		C125.928,98.217,127.019,98.339,128,98.762z"/>
	<path class="st2" d="M13.807,110.142c-4.778-2.293-7.499-3.236-9.333-6.581C3.28,101.383,1.83,99.549,0,98.762v24.522
		c0.264-1.765,0.195-3.402,0.515-5.199c0.452-2.545,2.353-4.373,4.785-3.285s5.851,3.272,8.391,2.279
		C16.229,116.086,18.585,112.435,13.807,110.142z"/>
	<path class="st3" d="M62.998,46.034c4.071-1.295,7.629-3.892,11.191-2.73c3.562,1.162,5.999,7.971,0.824,10.054
		c-5.175,2.083-7.307,2.734-8.986,5.595c-1.679,2.861-4.779,2.608-8.711-0.072c-5.465-3.726-5.326,3.493-9.549,4.224
		c-4.223,0.732-3.186-2.414-7.468-0.881s-4.762,3.288-7.873,5.712c-5.43,4.229-9.107-1.945-5.43-3.56
		c5.549-2.437,8.324-5.401,4.562-6.964c-2.698-1.121-5.914-3.325-4.836-5.093c1.078-1.768-0.606-4.64,2.406-4.371
		c3.012,0.269,4.637,3.942,7.833,2.992c3.196-0.949,0.963-4.714,3.284-7.291c2.321-2.577,6.035-2.825,8.745,0.264
		C51.699,47.003,53.442,49.074,62.998,46.034z"/>
	<path class="st3" d="M59.984,2.618c3.996,0.502,4.335-0.164,6.458,1.005c2.124,1.168,3.707,0.615,5.365-0.767
		c1.658-1.382,3.895,0.075,4.448-1.408C76.468,0.877,76.483,0.433,76.343,0H57.73C57.049,1.024,57.055,2.25,59.984,2.618z"/>
	<path class="st3" d="M79.924,0.945c-1.043,2.274-2.927,4.612-1.168,5.189c1.759,0.578-0.377,2.614,2.161,3.82
		c2.538,1.206,4.536,0.691,5.943-2.526c1.407-3.217,1.545-4.737,3.631-4.687c2.086,0.05,2.149,2.425,5.202,4.096
		c3.053,1.671,5.692,0.238,6.006-1.684c0.314-1.922-0.968-1.621-3.958-3.983C97.189,0.734,96.774,0.352,96.455,0H80.348
		C80.232,0.279,80.087,0.591,79.924,0.945z"/>
	<path class="st3" d="M82.135,119.949c-3.985,1.371-6.772,0.918-8.909-0.112c-2.136-1.03-2.375-1.47-4.473-2.915
		c-2.098-1.445-4.988-0.314-4.523,2.237c0.465,2.551,0.905,5.378-0.829,6.056c-1.734,0.679-3.556,0.792-4.762,1.797
		c-0.322,0.268-0.661,0.615-0.909,0.988h18.613c-0.223-0.691-0.841-1.354-1.684-2.459c-1.37-1.797-0.377-1.985,3.129-0.691
		c2.959,1.092,3.188,1.639,2.56,3.151h16.107c-1.406-1.555-0.94-2.551-2.17-5.275C92.777,119.382,89.184,117.523,82.135,119.949z"/>
	<path class="st1" d="M18.932,127.689c-2.548,0.566-2.973-0.566-2.265-3.115c0.708-2.548,0.566-3.681-3.964-3.539
		c-4.53,0.142-6.088,3.115-7.645,5.097c-1.278,1.626-2.651,1.441-5.058,0.149V128h30.635c-0.745-0.754-1.908-1.321-3.492-1.443
		C23.462,126.274,21.48,127.123,18.932,127.689z"/>
	<path class="st1" d="M109.963,0.539c-0.849,2.124,0.708,2.973,3.398,2.548c2.69-0.425,3.398,0.142,4.247,2.265
		c0.849,2.124,0.991,3.256,3.115,2.407c2.124-0.849,1.133-2.831,3.539-3.822c2.407-0.991,3.256,1.699,1.699,3.256
		c-1.557,1.557-2.265,2.831-0.283,6.937c0.828,1.714,1.581,2.86,2.322,3.532V0h-17.752C110.141,0.158,110.044,0.336,109.963,0.539z"
		/>
	<path class="st1" d="M125.677,126.132c-1.557,1.982-3.256,1.274-6.795-0.85c-3.539-2.123-4.106-4.105-6.512-4.389
		c-2.407-0.283-2.69,2.973-0.85,4.53c1.665,1.409-0.261,1.08-1.273,2.576H128v-4.747
		C127.054,124.186,126.366,125.256,125.677,126.132z"/>
	<path class="st1" d="M3.199,17.952c1.982-1.133-0.566-1.982,2.124-3.539c2.69-1.557,0.991-2.69-0.708-4.389
		C2.916,8.325,5.325,7.552,8.579,6.343c4.955-1.84,7.079-0.283,10.476,0c3.398,0.283,4.106-1.133,4.955-2.973
		c0.484-1.049,0.232-2.372-0.755-3.37H0v17.662C1.034,18.599,2.044,18.612,3.199,17.952z"/>
	<path class="st1" d="M126.733,48.852c-1.998,0.682-1.715-2.212-0.953-4.857c0.762-2.645,1.629-3.627-0.376-4.522
		c-2.004-0.895-2.686,0.075-4.644,2.888c-1.958,2.813-1.276,4.811-0.433,6.429s1.664,2.865-0.104,4.274
		c-1.767,1.409-2.559,2.108-2.443,3.956c0.116,1.848,2.643,2.666,4.644,3.049c3.287,0.629,1.461,4.083-1.657,4.65
		c-3.119,0.566-3.725,1.254-3.806,2.928c-0.081,1.675,1.872,3.223,6.336,1.923c2.103-0.612,3.525-1.594,4.702-2.613V48.201
		C127.675,48.431,127.283,48.665,126.733,48.852z"/>
	<path class="st1" d="M7.999,69.425c-0.173,3.165,2.755,4.003,4.817,2.853c2.062-1.149,0.855-4.135,1.172-6.475
		c0.318-2.339,3.743-2.461,6.885-2.657c3.142-0.196,6.457-3.558,6.122-5.949c-0.335-2.391-2.801-1.773-4.765-0.537
		c-1.964,1.236-2.253-0.416-4.182-1.594c-1.929-1.178-4.009-1.79-7.075,1.092c-3.067,2.882-4.557,2.79-6.336,1.046
		c-1.779-1.744-0.884-3.748,0.444-6.244c1.328-2.495-0.098-3.055-2.264-3.569c-1.57-0.373-1.96,0.205-2.817,0.811v18.756
		c1.321-1.144,2.335-2.335,3.661-3.105C6.168,62.396,8.172,66.26,7.999,69.425z"/>
	<path class="st3" d="M124.343,72.548c-3.435,1.341-2.117,5.189-3.026,7.336c-0.909,2.147-2.218,1.824-4.973,0.674
		c-2.755-1.151-3.972-1.634-5.788-0.326c-1.816,1.308,0.352,4.789-0.889,6.213c-1.241,1.423-1.645,3.433,0.686,4.02
		c2.331,0.588,4.744-1.018,7.328-0.5c2.584,0.519,3.776,2.909,7.027,1.889c1.998-0.627,2.586-1.536,3.293-2.672V74.609
		C127.034,73.408,126.77,71.6,124.343,72.548z"/>
	<path class="st3" d="M1.845,86.793c2.368-2.272,2.757-0.342,5.616-0.306c2.86,0.037,2.31-1.985,5.503-2.718
		c3.193-0.732,3.353,0.853,4.112-0.847c0.759-1.699-2.624-4.418-5.958-3.944c-2.09,0.297-3.928,0.525-4.662-1.175
		c-0.734-1.7-1.79-2.092-4.684-2.255C0.924,75.502,0.401,75.107,0,74.609v14.573C0.443,88.47,0.932,87.669,1.845,86.793z"/>
	<path class="st3" d="M34.179,108.007c6.191-0.424,3.546,2.222,8.542,3.103c4.817,0.85,8.987-2.619,11.387-0.13
		c2.4,2.488,6.694,2.819,7.98,0.7c1.286-2.118-1.396-5.809,1.766-7.236c3.162-1.427,6.32,0.198,9.253-1.621
		c2.933-1.819,3.871-6.153-0.735-5.038c-4.607,1.114-7.915,0.313-9.967,0.04c-2.052-0.273-2.665,2.819-5.893,3.233
		c-3.228,0.414-5.263-2.709-3.017-5.704c2.246-2.995,0.441-5.726-3.788-5.043c-4.228,0.683-7.945,2.96-10.249,8.196
		s-3.422,3.682-10.297,4.334c-6.875,0.652-8.166,5.822-5.453,6.866C26.423,110.75,27.821,108.442,34.179,108.007z"/>
	<path class="st2" d="M63.126,43.333c-3.027,1.49-4.125-0.387-4.089-2.357c0.035-1.97-2.062-3.965-5.527-1.771
		c-3.465,2.194-4.512,3.738-6.446,1.732c-1.935-2.006-5.396-2.272-6.432-0.564c-1.036,1.707,1.125,4.682-1.424,5.832
		c-2.549,1.15-1.376-0.502-3.981,0.473c-5.461,2.045-2.154,11.304,4.98,7.47c4.801-2.581,8.632-2.471,8.299,0.527
		c-0.441,3.968,1.443,6.282,4.85,5.732c3.408-0.55,6.393-4.85,4.992-8.038c-0.96-2.184-0.332-3.189,5.209-3.715
		c5.541-0.525,6.581-4.693,4.395-5.534C65.766,42.279,67.734,41.065,63.126,43.333z"/>
	<path class="st2" d="M101.474,33.581c-1.681,0.347-2.747,1.843-2.504,4.204c0.243,2.361-2.473,4.861-5.973,3.313
		c-3.5-1.549-3.621-2.729-4.416-4.207c-0.795-1.478-0.543-3.138-2.803-4.942c-2.26-1.805-3.409-1.026-7.248,0.012
		c-3.839,1.038-4.766,0.95-8.041-0.016c-3.275-0.966-5.525,3.028-4.893,5.239s1.993,3.135,5.296,3.309
		c3.303,0.174,4.199-0.396,6.41-1.027c2.211-0.632,4.44,0.516,1.651,4.272c-2.788,3.756-3.009,6.073-0.348,6.607
		c2.661,0.534,4.748-2.728,8.502-1.389c3.754,1.339,4.517,2.16,7.435,3.933c2.917,1.774,5.514-0.458,5.331-2.953
		c-0.184-2.496,1.383-4.217,3.682-5.775c2.299-1.558,3.713-5.118,2.064-7.939C103.969,33.397,102.714,33.325,101.474,33.581z"/>
	<path class="st2" d="M32.131,40.123c0.685,2.276,0.376,3.943-1.82,3.072c-2.196-0.87-4.267-0.636-3.512,1.096
		c0.755,1.732,1.082,4.003-0.113,5.187s-2.39,1.738-4.038-1.082c-1.647-2.82-2.894-4.567-4.227-3.997
		c-1.334,0.57-1.285,2.243-2.773,2.062c-1.489-0.181-1.935-1.04-2.769-3.463c-0.833-2.423-3.795-2.647-5.345-2.752
		s-2.583-2.435-0.221-3.191c2.362-0.756,4.924-0.976,4.92-2.864c-0.004-1.887,1.604-3.747,3.323-3.382
		c1.719,0.365,2.751,2.066,2.11,3.817c-0.641,1.75,0.484,4.28,2.158,4.86c1.674,0.58,3.207-0.083,1.929-2.106
		c-1.278-2.023-1.282-4.539,0.483-4.389c1.765,0.15,2.749,1.437,4.635,0.804c1.886-0.633,3.293-3.029,5.414-1.591
		c2.12,1.438,0.375,3.314-0.191,4.496C31.528,37.884,31.683,38.636,32.131,40.123z"/>
	<path class="st3" d="M87.969,63.024c2.751-0.151,4.128-2.729,8.036-1.681c3.908,1.048,3.335,4.266,1.219,5.858
		c-2.116,1.592-3.722,2.343-6.506,2.667c-2.784,0.324-2.712,3.622,0.94,5.09c3.652,1.468,5.257,6.313,5.144,8.818
		c-0.294,6.466-7.495,5.405-7.495,1.91c0-4.997-1.594-8.211-4.178-7.363c-2.584,0.847-4.886,1.373-7.725-0.867
		c-2.839-2.24-2.887-5.054-5.933-6.384c-3.046-1.33-3.535-1.282-6.96-0.945c-3.425,0.337-7.16-1.468-7.367-4.067
		c-0.207-2.598,1.709-4.714,8.498-3.011c6.788,1.703,7.884-1.715,11.295-2.694C80.348,59.377,82.318,63.333,87.969,63.024z"/>
	<path class="st2" d="M22.383,78.61c-0.317-1.844,1.508-3.111,3.673-2.902c2.114,0.203,3.143,5.471,7.566,3.697
		c4.422-1.775,4.641-2.146,5.87-1.047c1.229,1.099,0.245,2.771,2.934,1.602c2.689-1.169,6.077,1.576,3.726,3.444
		c-2.351,1.868-3.443-0.526-5.684,1.157c-2.241,1.683-0.302,3.7-4.024,5.136c-3.722,1.436-3.438,0.103-5.448-1.581
		c-2.011-1.684-4.558-1.182-9.247-0.441c-4.69,0.742-4.759-3.177-1.698-4.127S22.897,81.6,22.383,78.61z"/>
	<path class="st1" d="M11.708,108.824c-3.648-0.995-0.779-8.53,3.252-5.034c3.364,2.917,10.316-1.779,9.604,2.846
		c-0.711,4.624,3.557,4.98,8.537,4.624c4.98-0.356,4.624,4.624,0.356,4.624s-6.401-2.297-8.518,0.085
		c-3.818,4.295-10.335,1.338-9.268-2.931C16.739,108.77,15.621,109.892,11.708,108.824z"/>
	<path class="st1" d="M116.979,38.728c-2.18,1.465-2.376,1.903-2.934,3.94c-0.558,2.037-1.666,3.014-3.373,3.092
		c-1.708,0.078-2.535-1.779-1.337-3.879c1.198-2.1,1.717-3.175,0.162-3.58c-1.554-0.405-3.179-1.984-2.346-3.491
		c0.833-1.507,1.626-2.053,3.71-1.922c2.084,0.13,3.36-0.262,3.389-2.024c0.028-1.763-1.341-4.146-3.41-3.208
		c-2.069,0.937-2.317,2.276-3.915,2.566c-1.598,0.29-1.676-1.418-1.373-2.65c0.303-1.233-0.301-2.399-1.617-1.045
		c-1.316,1.354-0.551,2.571-2.521,2.92c-1.971,0.349-1.7,0.612-2.2,3.022c-0.5,2.41-1.988,2.912-3.534,3.041
		c-1.547,0.129-1.895-1.842-1.384-3.451c0.511-1.609-0.737-2.98-0.296-5.763c0.441-2.783,4.668-2.149,5.16-5.093
		c0.492-2.944,4.598-3.323,6.764-1.218c2.166,2.105,4.663,1.215,7.855,0.368c3.192-0.847,4.93,1.211,4.595,3.939
		c-0.335,2.728-0.213,3.741,2.091,4.295c2.304,0.554,4.035,2.078,1.176,3.828C118.783,34.163,120.47,36.382,116.979,38.728z"/>
	<path class="st3" d="M92.32,90.168c-4.144,0.319-4.997,5.291-1.764,5.585c3.233,0.294,6.76,0.588,6.172,3.233
		c-0.588,2.645,2.058,5.584,4.409,4.409c2.351-1.176,6.466-1.763,7.642,0.294c1.176,2.058-1.47,2.645-0.882,4.409
		c0.588,1.764,2.351,4.703,5.585,2.645c3.233-2.057,4.703,1.47,6.466,3.821c1.764,2.351,6.172,0,3.527-3.821
		c-2.645-3.821,0.355-9.036-4.642-10.211c-3.748-0.882-6.67-1.698-5.291-4.85c1.543-3.527-1.984-4.923-3.748-2.866
		c-1.763,2.057-3.66,4.113-6.599,0.88S96.141,89.874,92.32,90.168z"/>
	<path class="st3" d="M21.238,21.917c-1.729-0.329-3.893-1.858-5.871-1.451c-1.977,0.406-1.494,1.392-4.339,1.075
		c-2.845-0.318-4.56,0.474-4.888,2.199c-0.328,1.726,1.521,3.754,3.899,4.765c2.378,1.011,2.645,1.956,2.985,3.697
		c0.34,1.741,1.29,4.38,3.694,5.843c2.404,1.463,3.981,1.986,5.953,1.02c1.972-0.966,1.535-1.608-0.848-3.179
		c-2.383-1.571-1.322-5.392,1.442-4.643c2.763,0.749,4.704,1.118,7.01,1.333c2.306,0.215,3.789-2.297,2.31-3.919
		c-1.479-1.622-0.181-3.163,1.868-2.774c2.049,0.39,4.838-0.756,5.535-2.076c0.698-1.32-0.797-2.275-2.856-1.437
		c-2.059,0.838-4.822,0.089-7.714-0.573C26.527,21.135,24.257,22.491,21.238,21.917z"/>
	<path class="st3" d="M117.009,52.032c-3.677,0.687-4.997,5.878-2.645,7.642c2.351,1.764,2.939,8.23-0.588,6.466
		c-3.527-1.763-3.233,2.351-5.879,4.703c-2.645,2.351-8.23,0-5.29-4.115c2.939-4.115,6.466-11.757,2.939-14.108
		c-3.179-2.119-2.645-5.878,0.294-5.291c2.939,0.588,9.872-0.068,6.834-4.409c-1.029-1.47-0.882-3.233,0.588-3.821
		c1.47-0.588,2.792-0.441,3.821,1.91c1.029,2.351,1.617,3.968,4.115,3.527C123.696,44.096,124.872,50.562,117.009,52.032z"/>
	<path class="st2" d="M97.905,83.481c-5.585,1.47-5.878-7.054-1.764-7.936c4.115-0.882,4.703-1.47,5.584-4.115
		c0.882-2.645,5.291-6.466,8.524-2.351s3.233,2.645,6.76,2.645c3.527,0,5.584,4.703,0.294,5.584
		c-5.291,0.882-7.642,2.351-5.878,4.997c1.764,2.645-0.294,4.703-1.763,4.703c-1.764,0-1.764,0.294-3.527-2.939
		C104.371,80.836,102.461,82.282,97.905,83.481z"/>
	<path class="st3" d="M7.303,47.77c-3.885-0.471-3.38-5.29,0.588-4.85c2.091,0.232,3.821,2.057,5.731,0.588s3.527,0.735,5.144,2.204
		c1.616,1.47,3.086-1.176,3.968-2.792c0.882-1.617,4.409-1.764,2.792,1.617c-1.616,3.38-3.086,4.85-1.764,7.789
		c1.323,2.939,0.735,6.319-2.204,5.584c-2.939-0.735-3.968-4.703-7.348-4.85C10.83,52.914,12.153,48.358,7.303,47.77z"/>
	<path class="st1" d="M68.688,9.259c3.237,0.712,2.205-1.984,5.732-1.984c3.527,0,2.425,4.63,7.937,5.071
		c5.511,0.441,5.291-2.205,7.055-3.748c1.764-1.543,5.291-0.661,4.409,2.205c-0.882,2.866,2.646,1.102,4.63-0.882
		c1.984-1.984,6.834,0,3.087,3.527c-3.748,3.527-5.511,4.63-9.48,5.512c-3.968,0.882-2.205,5.291-6.173,5.732
		c-3.968,0.441-1.102-4.189-5.952-4.189c-4.85,0-9.039-1.764-10.141-3.748c-1.102-1.984-1.543-2.425-6.834-2.866
		S57.665,6.834,68.688,9.259z"/>
	<path class="st3" d="M38.014,15.701c1.41,0.481,1.82,1.519,2.388,4.802c0.568,3.283,3.588,4.944,4.956,2.932
		c1.368-2.011,1.59-3.897,2.519-5.874c0.929-1.976,2.881-3.05,4.625-1.627c1.744,1.423,4.052,3.955,6.342,3.704
		c2.29-0.251,5.014-2.711,1.621-5.632s-5.404-4.289-6.164-7.421c-0.76-3.132-2.191-5.735-5.222-5.832
		c-3.031-0.097-5.371,2.06-4.632,5.363s-1.585,3.116-4.081,2.908c-2.496-0.208-7.7-0.301-9.37,1.327
		c-1.67,1.628-3.305,3.695-0.325,5.698C33.651,18.054,35.674,14.903,38.014,15.701z"/>
	<path class="st3" d="M64.5,22.267c-4.109-1.73-3.087-5.732,0.441-5.952c3.527-0.221,3.087,2.646,7.275,3.968
		c4.189,1.323,4.409-0.661,6.834-2.425c2.425-1.764,5.071-1.323,7.496,1.543c2.425,2.866,5.732,1.543,9.921,1.323
		c4.189-0.22,7.275,4.409,2.646,5.732c-4.63,1.323-3.968,6.393-6.393,6.614c-2.425,0.22-0.441-3.087-4.63-4.63
		c-4.189-1.543-7.055,0.882-9.921,1.102c-2.866,0.22-4.409-5.071-6.173-2.866c-1.764,2.205-2.425,3.307-5.512,2.646
		C63.397,28.66,68.688,24.031,64.5,22.267z"/>
	<path class="st2" d="M100.49,17.764c-4.216-0.247-4.928-5.388-1.494-5.778c3.434-0.39,5.064-0.222,7.037-2.409
		s3.97-1.298,5.613,0.498c1.643,1.796,4.514-1.122,8.878,1.557c4.364,2.679,2.566,4.141-1.408,4.896
		c-3.974,0.756-3.229,3.464-6.481,4.032c-3.252,0.569-3.815-1.96-5.632-2.85C105.187,16.822,103.205,17.923,100.49,17.764z"/>
	<path class="st2" d="M28.785,3.748c-3.967,0.882-3.14,3.768-7.989,5.532c-4.849,1.763-3.696-2.004-9.648,1.744
		C7.842,13.104,3.614,14.166,0,14.207v6.429c8.337-0.491,12.651-0.291,16.828,0.545c4.408,0.882,3.967,4.408,7.493,2.645
		c3.526-1.763,1.763-5.289-1.322-7.053c-3.085-1.763,0.882-3.085,5.73-7.053C33.579,5.753,32.752,2.866,28.785,3.748z"/>
	<path class="st2" d="M125.92,14.11c-3.403-0.378-6.173,7.055,0.661,6.614c0.486-0.031,0.958-0.06,1.419-0.087v-6.429
		C127.278,14.215,126.58,14.183,125.92,14.11z"/>
	<path class="st2" d="M125.891,61.023c-3.343-0.694-5.468,0.055-6.05,2.068c-0.582,2.013,1.389,4.627,4.1,6.092
		c2.712,1.465,2.924,2.617,3.133,4.722c0.104,1.045,0.363,2.37,0.926,3.685V61.213C127.508,61.264,126.859,61.224,125.891,61.023z"
		/>
	<path class="st2" d="M2.811,81.256c2.692,2.005,4.506,2.802,6.955,1.874c2.449-0.928,2.002-1.739-0.654-3.869
		c-2.655-2.131-0.969-6.55,2.229-5.353c3.198,1.197,5.462,1.852,8.177,2.364c2.715,0.512,4.756-2.306,3.179-4.397
		c-1.576-2.091,0.138-3.777,2.528-3.086s5.829-0.36,6.805-1.85c0.976-1.49-0.693-2.79-3.231-2.025
		c-2.539,0.766-5.737-0.431-9.097-1.539c-3.36-1.108-6.206,0.251-9.729-0.768c-2.017-0.583-4.417-2.64-6.81-2.377
		c-1.7,0.186-1.959,0.858-3.163,0.983v16.378C0.571,78.924,1.455,80.246,2.811,81.256z"/>
	<path class="st3" d="M123.584,26.731c-1.984-1.984-2.646-0.441-4.85,1.102c-2.205,1.543-6.173,3.968-3.527,6.394
		c2.646,2.425,4.409-2.205,7.496-1.984c3.086,0.221,3.307,3.307,1.984,5.512c-1.323,2.205-3.748,3.968-1.102,5.071
		c1.84,0.767,3.04,0.04,4.416-1.141V29.107C126.541,28.973,125.276,28.987,123.584,26.731z"/>
	<path class="st3" d="M7.93,38.856c2.425-2.205-0.22-3.968-3.307-4.409c-3.086-0.441-0.882-4.409-3.086-5.071
		C0.988,29.212,0.483,29.151,0,29.107v12.577c0.603-0.517,1.239-1.121,1.977-1.725C4.402,37.974,5.505,41.061,7.93,38.856z"/>
</g>
</svg>
