<?xml version="1.0" encoding="iso-8859-1"?>
<!-- Uploaded to: SVG Repo, www.svgrepo.com, Generator: SVG Repo Mixer Tools -->
<svg height="20px" width="20px" version="1.1" id="Layer_1" xmlns="http://www.w3.org/2000/svg" xmlns:xlink="http://www.w3.org/1999/xlink" 
	 viewBox="0 0 511.988 511.988" xml:space="preserve">
<g>
	<path style="fill:#F6BB42;" d="M407.598,0c0,0-92.528,7.984-86.247,94.06c6.984,95.725,56.107,8.672,56.107,8.672l-0.016-42.421
		L407.598,0z"/>
	<path style="fill:#F6BB42;" d="M483.003,66.56l-48.248,72.373l-27.156,3.016l-97.997-67.85l-7.547,82.936
		c0,0-250.922,220.752-275.906,245.734c-24.984,24.983-24.984,65.498,0,90.482c24.984,24.983,65.49,24.983,90.474,0
		c8.203-8.203,245.744-275.906,245.744-275.906s57.529,19.288,94.919-5.812C545.721,152.16,483.003,66.56,483.003,66.56z
		 M87.67,464.3c-8.328,8.327-21.827,8.327-30.155,0c-8.328-8.328-8.328-21.828,0-30.156s21.827-8.328,30.155,0
		S95.998,455.972,87.67,464.3z"/>
</g>
<path style="fill:#FFCE54;" d="M483.003,45.233l-48.248,72.381l-27.156,3.016l-98.013-67.857l-7.531,82.935
	c0,0-250.922,220.768-275.906,245.752c-24.984,24.967-24.984,65.481,0,90.465c24.984,24.984,65.49,24.984,90.474,0
	c8.203-8.202,245.744-275.898,245.744-275.898s57.529,19.281,94.919-5.819C545.721,130.84,483.003,45.233,483.003,45.233z
	 M87.67,442.972c-8.328,8.328-21.827,8.328-30.155,0s-8.328-21.827,0-30.155s21.827-8.328,30.155,0
	C95.998,421.144,95.998,434.643,87.67,442.972z"/>
<path style="fill:#F6BB42;" d="M132.076,379.068c-2.727,0-5.453-1.047-7.539-3.125c-4.164-4.156-4.164-10.906,0-15.078
	l150.801-150.793c4.155-4.164,10.905-4.164,15.077,0c4.156,4.164,4.156,10.914,0,15.077L139.614,375.943
	C137.536,378.021,134.802,379.068,132.076,379.068z"/>
<path style="fill:#E6E9ED;" d="M418.192,119.45l-10.594,1.18l-60.825-42.116c-0.25,0.359-0.5,0.727-0.719,1.125l-12.937,24.756
	c-2.625,4.797-1.203,10.812,3.312,13.906l52.201,35.874c1.797,1.227,3.905,1.875,6.03,1.875c0.828-0.008,1.656-0.102,2.484-0.297
	c2.922-0.695,5.422-2.602,6.875-5.25l12.938-24.757C418.052,123.747,418.427,121.559,418.192,119.45z"/>
<polygon style="fill:#CCD1D9;" points="354.195,130.512 371.85,142.644 390.428,108.731 372.788,96.52 "/>
</svg>