<!DOCTYPE svg PUBLIC "-//W3C//DTD SVG 1.1//EN" "http://www.w3.org/Graphics/SVG/1.1/DTD/svg11.dtd">
<!-- Uploaded to: SVG Repo, www.svgrepo.com, Transformed by: SVG Repo Mixer Tools -->
<svg height="20px" width="20px" version="1.1" id="Layer_1" xmlns="http://www.w3.org/2000/svg" xmlns:xlink="http://www.w3.org/1999/xlink" viewBox="0 0 496.064 496.064" xml:space="preserve" fill="#000000">
<g id="SVGRepo_bgCarrier" stroke-width="0"/>
<g id="SVGRepo_tracerCarrier" stroke-linecap="round" stroke-linejoin="round"/>
<g id="SVGRepo_iconCarrier"> <path style="fill:#49504f;" d="M487.239,427.216c0,6.4-5.6,12-12,12h-454.4c-6.4,0-12-5.6-12-12l0,0c0-6.4,5.6-12,12-12h454.4 C482.439,415.216,487.239,420.816,487.239,427.216L487.239,427.216z"/> <g> <path style="fill:#383e3d;" d="M487.239,427.216c0-6.4-5.6-12-12-12h-90.4l38.4,19.2l6.4,5.6h45.6 C482.439,440.016,487.239,434.416,487.239,427.216z"/> <path style="fill:#383e3d;" d="M111.239,415.216h-90.4c-6.4,0-12,5.6-12,12s5.6,12,12,12h45.6l6.4-5.6L111.239,415.216z"/> </g> <path style="fill:#f94343;" d="M476.039,366.416c-0.8-0.8-1.6-0.8-2.4-1.6l-178.4-108.8c-12.8-12-29.6-19.2-47.2-19.2 s-34.4,6.4-47.2,19.2l-179.2,108.8c-0.8,0.8-1.6,0.8-2.4,1.6c-16.8,17.6-23.2,41.6-16.8,64.8c0.8,4,4,6.4,7.2,8 c0.8,0,2.4,0.8,3.2,0.8c2.4,0,4.8-0.8,7.2-2.4l52.8-43.2l140-70.4c0.8-0.8,2.4-1.6,3.2-2.4c8.8-8.8,20-13.6,32-13.6s24,4.8,32,13.6 c0.8,0.8,1.6,1.6,3.2,2.4l140,70.4l52.8,43.2c3.2,2.4,7.2,3.2,10.4,1.6c3.2-0.8,6.4-4,7.2-8 C500.039,408.016,493.639,384.016,476.039,366.416z"/> <path style="fill:#ed0707;" d="M474.439,384.016l-179.2-108.8c-12.8-12-29.6-19.2-47.2-19.2s-34.4,6.4-47.2,19.2l-179.2,108.8 c-0.8,0.8-1.6,0.8-2.4,1.6c-10.4,10.4-16.8,24-19.2,37.6c0,2.4,0.8,4.8,1.6,8c0.8,4,4,6.4,7.2,8c0.8,0,2.4,0.8,3.2,0.8 c2.4,0,4.8-0.8,7.2-2.4l52.8-43.2l140-70.4c0.8-0.8,2.4-1.6,3.2-2.4c8.8-8.8,20-13.6,32-13.6c12,0,24,4.8,32,13.6 c0.8,0.8,1.6,1.6,3.2,2.4l140,70.4l52.8,43.2c3.2,2.4,7.2,3.2,10.4,1.6c3.2-0.8,6.4-4,7.2-8c0.8-2.4,0.8-4.8,1.6-8 c-2.4-14.4-8.8-27.2-19.2-37.6C476.039,385.616,475.239,384.816,474.439,384.016z"/> <path style="fill:#383e3d;" d="M260.039,244.816c0,6.4-5.6,12-12,12l0,0c-6.4,0-12-5.6-12-12v-70.4c0-6.4,5.6-12,12-12l0,0 c6.4,0,12,5.6,12,12V244.816z"/> <path style="fill:#49504f;" d="M248.039,56.016c-35.2,0-64,28.8-64,64c0,6.4,5.6,12,12,12s12-5.6,12-12c0-22.4,18.4-40.8,40.8-40.8 s40.8,18.4,40.8,40.8s-18.4,40.8-40.8,40.8c-6.4,0-12,5.6-12,12s4.8,11.2,11.2,11.2c35.2,0,64-28.8,64-64 S283.239,56.016,248.039,56.016z"/> </g>
</svg>