<!DOCTYPE svg PUBLIC "-//W3C//DTD SVG 1.1//EN" "http://www.w3.org/Graphics/SVG/1.1/DTD/svg11.dtd">
<!-- Uploaded to: SVG Repo, www.svgrepo.com, Transformed by: SVG Repo Mixer Tools -->
<svg version="1.1" id="Layer_1" xmlns="http://www.w3.org/2000/svg" xmlns:xlink="http://www.w3.org/1999/xlink" viewBox="0 0 512 512" xml:space="preserve" width="20px" height="20px" fill="#000000">
<g id="SVGRepo_bgCarrier" stroke-width="0"/>
<g id="SVGRepo_tracerCarrier" stroke-linecap="round" stroke-linejoin="round"/>
<g id="SVGRepo_iconCarrier"> <path style="fill:#00A155;" d="M169.938,61.111v97.408c0,6.945-4.027,13.261-10.325,16.191l0,0 c-20.761,9.66-34.039,30.482-34.039,53.381v261.588c0,12.328,9.993,22.321,22.321,22.321h124.02 c12.328,0,22.321-9.994,22.321-22.321V228.091c0-22.899-13.278-43.721-34.039-53.381l0,0c-6.297-2.93-10.325-9.245-10.325-16.191 V61.111H169.938z"/> <path style="fill:#006539;" d="M294.236,251.645H125.574v238.033c0,12.328,9.994,22.321,22.321,22.321h124.02 c12.328,0,22.321-9.994,22.321-22.321V251.645H294.236z"/> <path style="fill:#FDD05F;" d="M249.873,61.111h2.748c3.347,0,6.061-2.714,6.061-6.061V39.645c0-3.347-2.714-6.061-6.061-6.061 h-2.748V19.585C249.873,8.769,241.104,0,230.288,0h-40.766c-10.816,0-19.585,8.769-19.585,19.585v13.999h-2.748 c-3.347,0-6.061,2.714-6.061,6.061v15.404c0,3.347,2.714,6.061,6.061,6.061h2.748v27.232h79.935V61.111z"/> <rect x="169.942" y="61.11" style="opacity:0.05;enable-background:new ;" width="79.941" height="14.046"/> <rect x="169.942" y="19.538" style="opacity:0.05;enable-background:new ;" width="79.941" height="14.046"/> <g> <path style="opacity:0.15;fill:#FFFFFF;enable-background:new ;" d="M260.197,174.709L260.197,174.709 c-6.093-2.835-10.05-8.843-10.3-15.522c-23.561,10.517-39.991,34.135-39.991,61.603c0,37.25,30.198,67.448,67.448,67.448 c5.83,0,11.487-0.74,16.883-2.131V228.09C294.236,205.192,280.959,184.37,260.197,174.709z"/> <path style="fill:#FFFFFF;" d="M261.787,300.712H158.023c-4.554,0-8.246,3.692-8.246,8.246v79.379c0,4.554,3.692,8.246,8.246,8.246 h103.764c4.554,0,8.246-3.692,8.246-8.246v-79.379C270.034,304.404,266.341,300.712,261.787,300.712z"/> </g> <g> <path style="fill:#FDD05F;" d="M231.218,428.256h-42.625c-1.45,0-2.627,1.176-2.627,2.627v19.176c0,1.45,1.176,2.627,2.627,2.627 h42.625c1.45,0,2.627-1.176,2.627-2.627v-19.176C233.844,429.431,232.668,428.256,231.218,428.256z"/> <path style="fill:#FDD05F;" d="M241.477,344.51h-63.143c-4.564,0-8.264-3.7-8.264-8.264c0-4.564,3.7-8.264,8.264-8.264h63.143 c4.564,0,8.264,3.7,8.264,8.264C249.741,340.811,246.041,344.51,241.477,344.51z"/> <path style="fill:#FDD05F;" d="M226.26,369.312h-32.708c-4.564,0-8.264-3.7-8.264-8.264c0-4.564,3.7-8.264,8.264-8.264h32.708 c4.564,0,8.264,3.7,8.264,8.264C234.524,365.612,230.824,369.312,226.26,369.312z"/> </g> <circle style="opacity:0.25;fill:#FFFFFF;enable-background:new ;" cx="182.162" cy="255.998" r="16.528"/> <path style="fill:#6ee5f7;" d="M365.881,243.879H258.135c-6.663,0-12.268,4.991-13.038,11.609l-7.071,60.796 c-3.533,30.375,14.677,59.077,43.663,68.823l0,0c7.497,2.521,12.548,9.547,12.548,17.457v87.375h35.543v-87.375 c0-7.909,5.051-14.936,12.548-17.457l0,0c28.985-9.745,47.194-38.448,43.662-68.823l-7.071-60.796 C378.15,248.871,372.544,243.879,365.881,243.879z"/> <rect x="294.233" y="476.372" style="opacity:0.1;enable-background:new ;" width="35.546" height="13.571"/> <path style="fill:#6ee5f7;" d="M356.116,489.938h-88.216c-6.092,0-11.031,4.939-11.031,11.031l0,0 c0,6.092,4.939,11.031,11.031,11.031h88.216c6.092,0,11.031-4.939,11.031-11.031l0,0 C367.146,494.877,362.208,489.938,356.116,489.938z"/> <path style="opacity:0.25;fill:#FFFFFF;enable-background:new ;" d="M356.115,489.938h-18.632 c2.162,7.848,9.332,13.619,17.867,13.619c4.426,0,8.486-1.555,11.674-4.142C366.268,494.062,361.679,489.938,356.115,489.938z"/> <path style="fill:#dd0303;" d="M385.989,316.286l-2.27-19.516H240.297l-2.27,19.516c-3.533,30.375,14.677,59.077,43.663,68.823 c13.791,3.668,22.055,5.321,30.319,5.321s16.528-1.653,30.319-5.321C371.312,375.362,389.522,346.66,385.989,316.286z"/> <g> <path style="opacity:0.25;fill:#FFFFFF;enable-background:new ;" d="M385.989,316.286l-7.071-60.797 c-0.769-6.618-6.375-11.609-13.038-11.609h-34.666c-5.074,8.262-8.005,17.981-8.005,28.388c0,30.002,24.322,54.323,54.322,54.323 c3.014,0,5.966-0.257,8.846-0.728C386.48,322.702,386.364,319.504,385.989,316.286z"/> <circle style="opacity:0.25;fill:#FFFFFF;enable-background:new ;" cx="323.212" cy="343.123" r="16.528"/> </g> </g>
</svg>