<?xml version="1.0" encoding="iso-8859-1"?>
<!-- Uploaded to: SVG Repo, www.svgrepo.com, Generator: SVG Repo Mixer Tools -->
<svg height="20px" width="20px" version="1.1" id="Layer_1" xmlns="http://www.w3.org/2000/svg" xmlns:xlink="http://www.w3.org/1999/xlink" 
	 viewBox="0 0 511.99 511.99" xml:space="preserve">
<path style="fill:#FECD57;" d="M275.872,125.228l-37.344-63.999c-1.906-3.281-5.406-5.296-9.203-5.296h-74.669
	c-3.781,0-7.297,2.015-9.203,5.296l-37.343,63.999c-1.938,3.312-1.938,7.421,0,10.749l37.343,63.998
	c1.906,3.281,5.422,5.297,9.203,5.297h74.669c3.797,0,7.297-2.016,9.203-5.297l37.344-63.998
	C277.809,132.649,277.809,128.541,275.872,125.228z M191.998,161.931c-17.671,0-32-14.312-32-32c0-17.671,14.328-31.999,32-31.999
	c17.671,0,31.999,14.328,31.999,31.999C223.997,147.618,209.669,161.931,191.998,161.931z"/>
<path style="fill:#F6BB42;" d="M191.998,172.601c-23.531,0-42.671-19.14-42.671-42.671c0-23.515,19.14-42.654,42.671-42.654
	c23.53,0,42.655,19.14,42.655,42.654C234.653,153.462,215.529,172.601,191.998,172.601z M191.998,108.603
	c-11.766,0-21.343,9.578-21.343,21.327c0,11.766,9.578,21.344,21.343,21.344s21.327-9.578,21.327-21.344
	C213.326,118.182,203.763,108.603,191.998,108.603z"/>
<path style="fill:#FECD57;" d="M510.537,381.214l-37.344-63.999c-1.906-3.281-5.422-5.297-9.202-5.297h-74.67
	c-3.797,0-7.297,2.016-9.219,5.297l-37.326,63.999c-1.938,3.311-1.938,7.42,0,10.748l37.326,63.999
	c1.922,3.281,5.422,5.297,9.219,5.297h74.67c3.78,0,7.296-2.016,9.202-5.297l37.344-63.999
	C512.474,388.634,512.474,384.524,510.537,381.214z M426.648,417.915c-17.672,0-32-14.328-32-32c0-17.67,14.328-31.998,32-31.998
	c17.688,0,31.999,14.328,31.999,31.998C458.647,403.587,444.336,417.915,426.648,417.915z"/>
<path style="fill:#F6BB42;" d="M426.648,428.586c-23.516,0-42.655-19.14-42.655-42.671c0-23.514,19.14-42.654,42.655-42.654
	c23.53,0,42.67,19.141,42.67,42.654C469.318,409.446,450.179,428.586,426.648,428.586z M426.648,364.589
	c-11.75,0-21.328,9.578-21.328,21.326c0,11.766,9.578,21.344,21.328,21.344c11.766,0,21.343-9.578,21.343-21.344
	C447.991,374.167,438.414,364.589,426.648,364.589z"/>
<path style="fill:#CBD0D8;" d="M452.038,113.603c-0.75-2.734-2.547-5.047-5.016-6.453l-55.593-31.702
	c-5.124-2.922-11.624-1.125-14.546,3.984L250.09,301.809c-2.922,5.124-1.141,11.64,3.984,14.546l55.592,31.702
	c1.672,0.953,3.484,1.406,5.266,1.406c3.719,0,7.312-1.938,9.281-5.391l126.793-222.376
	C452.413,119.244,452.772,116.322,452.038,113.603z"/>
<path style="fill:#E6E9ED;" d="M511.537,73.854c-0.75-2.734-2.547-5.047-5.016-6.453L395.336,4.013
	c-5.124-2.922-11.64-1.141-14.562,3.969l-31.686,55.607c-2.922,5.109-1.141,11.625,3.984,14.547l111.184,63.389
	c1.671,0.953,3.483,1.406,5.28,1.406c3.703,0,7.297-1.938,9.266-5.391l31.703-55.592C511.912,79.495,512.271,76.573,511.537,73.854z
	"/>
<path style="fill:#CCD1D9;" d="M441.664,30.418l-15.859,27.796c-2.906,5.125-1.125,11.641,3.984,14.547
	c1.672,0.953,3.484,1.406,5.281,1.406c3.703,0,7.312-1.938,9.281-5.375l15.843-27.812L441.664,30.418z"/>
<path style="fill:#CBD0D8;" d="M330.995,438.851L125.719,285.888c-4.719-3.516-11.406-2.547-14.921,2.188l-38.249,51.311
	c-1.687,2.266-2.406,5.125-2,7.922s1.921,5.312,4.187,7l205.26,152.964c1.859,1.375,4.094,2.109,6.375,2.109
	c0.516,0,1.031-0.031,1.547-0.109c2.797-0.406,5.328-1.906,7.016-4.171l38.233-51.327
	C336.683,449.055,335.714,442.367,330.995,438.851z"/>
<path style="fill:#E6E9ED;" d="M144.843,260.239l-51.327-38.232c-2.265-1.688-5.109-2.422-7.906-2
	c-2.812,0.406-5.328,1.906-7.016,4.171L2.113,326.808c-3.516,4.719-2.547,11.405,2.188,14.921l51.311,38.25
	c1.859,1.375,4.094,2.109,6.375,2.109c0.516,0,1.031-0.031,1.547-0.109c2.797-0.406,5.312-1.922,7-4.188l76.482-102.639
	C150.531,270.442,149.562,263.755,144.843,260.239z"/>
<path style="fill:#CCD1D9;" d="M59.642,303.169c1.906,1.422,4.141,2.109,6.359,2.109c3.25,0,6.468-1.484,8.562-4.297
	c3.515-4.719,2.546-11.406-2.188-14.922L46.72,266.942l-12.75,17.102L59.642,303.169z"/>
<g>
	<path style="fill:#AAB2BC;" d="M374.275,127.072c1.671,0.938,3.483,1.391,5.28,1.391c3.703,0,7.312-1.938,9.281-5.375
		c2.905-5.125,1.125-11.641-3.984-14.562l-18.53-10.562l0,0l-10.577,18.53l0,0L374.275,127.072z"/>
	<path style="fill:#AAB2BC;" d="M363.713,156.259c3.703,0,7.297-1.922,9.266-5.375c2.921-5.125,1.141-11.641-3.984-14.547
		l-18.53-10.577l-10.562,18.53l18.531,10.578C360.104,155.821,361.917,156.259,363.713,156.259z"/>
	<path style="fill:#AAB2BC;" d="M342.589,182.664c1.656,0.953,3.469,1.406,5.266,1.406c3.703,0,7.312-1.938,9.281-5.391
		c2.922-5.125,1.125-11.624-3.984-14.546l-18.531-10.562l0,0l-10.562,18.53l0,0L342.589,182.664z"/>
	<path style="fill:#AAB2BC;" d="M332.011,211.866c3.703,0,7.297-1.938,9.266-5.391c2.922-5.125,1.141-11.625-3.969-14.547
		l-18.547-10.562l-10.562,18.53l18.531,10.562C328.401,211.413,330.214,211.866,332.011,211.866z"/>
	<path style="fill:#AAB2BC;" d="M310.886,238.256c1.672,0.953,3.484,1.406,5.266,1.406c3.719,0,7.312-1.938,9.281-5.391
		c2.922-5.109,1.141-11.624-3.984-14.546l-18.531-10.562l0,0l-10.562,18.53l0,0L310.886,238.256z"/>
	<path style="fill:#AAB2BC;" d="M305.604,247.521l-18.53-10.562l0,0l-10.577,18.531l0,0l18.53,10.562
		c1.672,0.953,3.484,1.406,5.28,1.406c3.703,0,7.312-1.938,9.281-5.391C312.495,256.958,310.714,250.443,305.604,247.521z"/>
	<path style="fill:#AAB2BC;" d="M289.746,275.309l-18.53-10.555l-10.562,18.523l18.531,10.562c1.671,0.953,3.483,1.406,5.28,1.406
		c3.703,0,7.297-1.938,9.266-5.391C296.652,284.747,294.871,278.231,289.746,275.309z"/>
	<path style="fill:#AAB2BC;" d="M440.445,140.227l-18.531-10.562c-5.125-2.921-11.641-1.14-14.547,3.984
		c-2.922,5.109-1.141,11.625,3.984,14.547l18.531,10.562l0,0L440.445,140.227L440.445,140.227z"/>
	<path style="fill:#AAB2BC;" d="M406.055,157.462c-5.109-2.906-11.625-1.125-14.547,3.984c-2.905,5.125-1.124,11.64,3.984,14.546
		l18.531,10.562l10.578-18.53l0,0L406.055,157.462z"/>
	<path style="fill:#AAB2BC;" d="M390.212,185.258c-5.109-2.906-11.625-1.125-14.546,3.984c-2.922,5.124-1.141,11.64,3.983,14.546
		l18.53,10.562c0,0,0,0,0,0.016l10.562-18.547l0,0L390.212,185.258z"/>
	<path style="fill:#AAB2BC;" d="M374.369,213.054c-5.125-2.906-11.641-1.125-14.546,3.984c-2.922,5.125-1.141,11.64,3.983,14.546
		l18.53,10.578l0,0l10.562-18.531l0,0L374.369,213.054z"/>
	<path style="fill:#AAB2BC;" d="M358.526,240.849c-5.125-2.906-11.641-1.125-14.562,3.984c-2.906,5.125-1.125,11.64,3.984,14.562
		l18.53,10.562l0,0l10.562-18.53l0,0L358.526,240.849z"/>
	<path style="fill:#AAB2BC;" d="M328.12,272.638c-2.922,5.109-1.141,11.625,3.984,14.547l18.531,10.562l10.562-18.531
		l-18.531-10.555C337.542,265.739,331.042,267.52,328.12,272.638z"/>
	<path style="fill:#AAB2BC;" d="M312.261,300.434c-2.906,5.108-1.125,11.624,3.984,14.546l18.531,10.562l10.578-18.531
		l-18.531-10.562C321.698,293.528,315.183,295.309,312.261,300.434z"/>
	<path style="fill:#AAB2BC;" d="M119.5,347.776c-4.719-3.516-11.406-2.547-14.921,2.188l-12.75,17.094l17.109,12.75l12.75-17.094
		C125.203,357.979,124.234,351.307,119.5,347.776z"/>
	<path style="fill:#AAB2BC;" d="M145.171,366.901c-4.734-3.516-11.421-2.547-14.937,2.188L117.5,386.181l17.109,12.75l12.734-17.107
		C150.859,377.104,149.89,370.417,145.171,366.901z"/>
	<path style="fill:#AAB2BC;" d="M170.827,386.009c-4.719-3.515-11.406-2.531-14.922,2.188l-12.75,17.109l17.109,12.75l12.734-17.109
		C176.53,396.212,175.546,389.54,170.827,386.009z"/>
	<path style="fill:#AAB2BC;" d="M196.483,405.134c-4.719-3.516-11.406-2.547-14.922,2.188l-12.75,17.093l17.109,12.75l12.749-17.108
		C202.185,415.337,201.216,408.649,196.483,405.134z"/>
	<path style="fill:#AAB2BC;" d="M222.138,424.259c-4.719-3.516-11.406-2.547-14.921,2.171l-12.749,17.109l17.108,12.75l12.75-17.109
		C227.841,434.461,226.872,427.773,222.138,424.259z"/>
	<path style="fill:#AAB2BC;" d="M247.809,443.383c-4.734-3.531-11.406-2.547-14.937,2.172l-12.75,17.109l17.109,12.749l12.75-17.108
		C253.496,453.586,252.528,446.898,247.809,443.383z"/>
	<path style="fill:#AAB2BC;" d="M273.466,462.492c-4.734-3.516-11.406-2.531-14.938,2.188l-12.735,17.093l17.11,12.75l12.734-17.094
		C279.153,472.694,278.184,466.022,273.466,462.492z"/>
	<path style="fill:#AAB2BC;" d="M132.266,330.668c1.906,1.422,4.14,2.109,6.359,2.109c3.25,0,6.469-1.484,8.562-4.281l12.75-17.109
		l-17.109-12.749l-12.75,17.108C126.562,320.465,127.531,327.152,132.266,330.668z"/>
	<path style="fill:#AAB2BC;" d="M157.921,349.792c1.906,1.422,4.141,2.109,6.359,2.109c3.25,0,6.469-1.484,8.562-4.297l12.75-17.093
		l-17.109-12.75l-12.75,17.094C152.218,339.589,153.187,346.261,157.921,349.792z"/>
	<path style="fill:#AAB2BC;" d="M183.577,368.901c1.906,1.438,4.141,2.125,6.359,2.125c3.25,0,6.469-1.484,8.562-4.297l12.75-17.109
		l-17.108-12.75l-12.75,17.109C177.873,358.714,178.842,365.386,183.577,368.901z"/>
	<path style="fill:#AAB2BC;" d="M209.232,388.024c1.906,1.438,4.141,2.125,6.359,2.125c3.265,0,6.468-1.484,8.562-4.297
		l12.75-17.107l-17.109-12.75l-12.75,17.109C203.529,377.823,204.513,384.509,209.232,388.024z"/>
	<path style="fill:#AAB2BC;" d="M234.888,407.149c1.922,1.422,4.156,2.109,6.375,2.109c3.25,0,6.469-1.484,8.562-4.297
		l12.735-17.094l-17.094-12.748l-12.75,17.092C229.184,396.946,230.169,403.634,234.888,407.149z"/>
	<path style="fill:#AAB2BC;" d="M260.559,426.258c1.906,1.438,4.141,2.125,6.359,2.125c3.25,0,6.469-1.484,8.562-4.296
		l12.749-17.109l-17.108-12.734l-12.75,17.094C254.856,416.056,255.825,422.743,260.559,426.258z"/>
	<path style="fill:#AAB2BC;" d="M296.777,413.352l-12.75,17.108c-3.516,4.719-2.531,11.406,2.188,14.922
		c1.906,1.422,4.141,2.109,6.359,2.109c3.266,0,6.469-1.469,8.562-4.281l12.75-17.109L296.777,413.352z"/>
</g>
</svg>