<?xml version="1.0" encoding="iso-8859-1"?>
<!-- Uploaded to: SVG Repo, www.svgrepo.com, Generator: SVG Repo Mixer Tools -->
<svg height="20px" width="20px" version="1.1" id="Layer_1" xmlns="http://www.w3.org/2000/svg" xmlns:xlink="http://www.w3.org/1999/xlink" 
	 viewBox="0 0 512.002 512.002" xml:space="preserve">
<path style="fill:#C8C6CB;" d="M198.411,468.576H58.106c-20.807,0-37.83-17.024-37.83-37.83l0,0v-21.269h138.096v15.587h40.038
	L198.411,468.576L198.411,468.576z"/>
<rect x="167.474" y="425.062" style="fill:#AEADB1;" width="30.933" height="43.512"/>
<polygon style="fill:#C8C6CB;" points="224.195,396.321 136.327,292.716 117.947,223.653 117.947,223.653 141.053,234.198 
	154.764,255.919 168.294,246.628 182.964,253.322 270.832,356.927 "/>
<polygon style="fill:#AEADB1;" points="269.129,355.011 238.454,318.843 193.338,360.029 222.492,394.404 "/>
<path style="fill:#C8C6CB;" d="M313.927,127.309C288.882,98.093,237.461,71.6,217.047,89.1
	c-20.415,17.499-2.093,72.366,22.951,101.582c17.759,20.717,34.129,22.963,49.43,16.283l64.499,72.348l32.477-27.839l-64.351-72.174
	C331.4,165.056,331.96,148.346,313.927,127.309z"/>
<polygon style="fill:#AEADB1;" points="384.352,249.196 356.475,217.929 325.292,247.218 351.874,277.035 "/>
<path style="fill:#C8C6CB;" d="M467.846,7.623v69.014h-17.941V7.623h-21.188v69.014h-17.941V7.623h-21.189v69.014V97.42v14.288
	c0,20.918,12.923,38.805,31.214,46.149v63.272h37.019v-63.272c18.291-7.344,31.214-25.232,31.214-46.149V97.419V76.637V7.623
	H467.846z"/>
<rect x="420.803" y="195.74" style="fill:#AEADB1;" width="37.072" height="27.321"/>
<path style="fill:#6EADE3;" d="M205.924,486.701L205.924,486.701c-24.099-24.099-23.477-63.358,1.372-86.681l193.247-172.767
	c21.313-20.004,54.657-19.476,75.326,1.192l0,0c20.669,20.669,21.197,54.013,1.192,75.326L292.605,485.327
	C269.281,510.178,230.022,510.799,205.924,486.701z"/>
<path style="opacity:0.52;fill:#557FB1;enable-background:new    ;" d="M475.869,228.344L475.869,228.344
	c-6.607-6.607-14.511-11.145-22.901-13.623c14.811,20.646,13.398,49.435-4.543,68.552L263.967,464.829
	c-16.689,17.781-41.535,23.151-63.15,15.941c1.562,2.021,3.253,3.974,5.107,5.829l0,0c24.099,24.099,63.358,23.477,86.681-1.372
	l184.456-181.558C497.065,282.357,496.538,249.013,475.869,228.344z"/>
<g>
	<circle style="fill:#456991;" cx="440.105" cy="264.215" r="12.738"/>
	<circle style="fill:#456991;" cx="245.95" cy="446.67" r="12.738"/>
</g>
<path d="M332.806,333.578c-4.131-0.825-8.142,1.862-8.963,5.992l-12.059,60.691c-0.821,4.13,1.862,8.141,5.992,8.962
	c0.501,0.1,1.001,0.148,1.493,0.148c3.564,0,6.748-2.512,7.47-6.139l12.059-60.691C339.619,338.411,336.936,334.398,332.806,333.578
	z"/>
<path d="M367.472,303.232c-4.129-0.823-8.142,1.862-8.963,5.991l-12.06,60.691c-0.821,4.13,1.862,8.142,5.991,8.963
	c0.502,0.1,1.001,0.148,1.494,0.148c3.564,0,6.748-2.512,7.469-6.139l12.06-60.691C374.283,308.065,371.601,304.053,367.472,303.232
	z"/>
<path d="M481.259,223.056c-4.697-4.697-10.038-8.533-15.814-11.456v-48.842c19.122-9.751,31.214-29.262,31.214-51.05V7.623
	c0-4.21-3.413-7.623-7.623-7.623h-21.189c-4.21,0-7.623,3.413-7.623,7.623v61.39h-2.694V7.623c0-4.21-3.413-7.623-7.623-7.623
	h-21.189c-4.21,0-7.623,3.413-7.623,7.623v61.39h-2.694V7.623c0-4.21-3.413-7.623-7.623-7.623h-21.187
	c-4.21,0-7.623,3.413-7.623,7.623v104.083c0,21.788,12.092,41.298,31.214,51.05v47.221c-6.481,2.792-12.498,6.704-17.786,11.652
	l-15.293,13.673l-48.742-56.861c9.009-17.707,5.108-36.55-11.644-56.093c-13.145-15.334-33.421-30.144-52.916-38.649
	c-23.576-10.286-43.007-10.422-54.714-0.386c-11.708,10.036-14.543,29.26-7.982,54.13c5.426,20.566,16.962,42.867,30.106,58.202
	c16.521,19.272,34.29,26.087,52.888,20.317l49.737,58.022l-71.791,64.183l-76.27-89.779c-0.724-0.852-1.627-1.535-2.645-1.999
	l-14.671-6.694c-2.435-1.111-5.274-0.864-7.48,0.652l-6.998,4.806l-9.481-15.021c-0.792-1.254-1.932-2.25-3.282-2.866
	l-23.106-10.544c-2.684-1.225-5.831-0.792-8.085,1.112c-2.252,1.903-3.206,4.934-2.448,7.784l18.38,69.062
	c0.292,1.096,0.823,2.112,1.557,2.975l77.631,91.381l-5.933,5.305c-0.046,0.042-0.091,0.082-0.136,0.125
	c-7.021,6.59-12.434,14.402-16.074,22.98h-20.01v-7.964c0-4.21-3.413-7.623-7.623-7.623H20.276c-4.21,0-7.623,3.413-7.623,7.623
	v21.269c0,25.064,20.39,45.454,45.453,45.454h130.141c0.145,0,0.287-0.013,0.43-0.021c3.11,5.772,7.076,11.132,11.857,15.913
	c12.866,12.866,29.882,19.909,48.03,19.909c0.37,0,0.742-0.002,1.113-0.008c18.51-0.294,35.685-7.869,48.38-21.333l184.352-181.454
	c0.071-0.07,0.142-0.142,0.211-0.215c11.037-11.76,16.975-27.117,16.72-43.242C499.084,249.621,492.663,234.46,481.259,223.056z
	 M397.212,111.706v-96.46h5.942v61.39c0,4.21,3.413,7.623,7.623,7.623h17.941c4.21,0,7.623-3.413,7.623-7.623v-61.39h5.943v61.39
	c0,4.21,3.413,7.623,7.623,7.623h17.941c4.21,0,7.623-3.413,7.623-7.623v-61.39h5.943v96.46c0,17.291-10.375,32.629-26.432,39.075
	c-2.89,1.16-4.783,3.96-4.783,7.074v47.111h-21.771v-47.111c0-3.113-1.894-5.914-4.783-7.074
	C407.587,144.335,397.212,128.997,397.212,111.706z M347.911,263.477l-52.696-61.473c-1.482-1.729-3.613-2.662-5.79-2.662
	c-1.027,0-2.063,0.207-3.048,0.637c-9.612,4.197-22.911,6.367-40.591-14.257c-11.742-13.697-22.064-33.687-26.94-52.168
	c-4.844-18.361-3.662-32.816,3.162-38.665c6.825-5.849,21.29-4.808,38.695,2.785c17.519,7.643,35.695,20.9,47.437,34.597
	c17.901,20.882,13.433,33.866,7.54,42.845c-1.863,2.838-1.624,6.566,0.585,9.145l52.468,61.207l-4.421,3.953L347.911,263.477z
	 M143.251,289.092l-13.787-51.803l6.356,2.901l12.497,19.8c1.106,1.753,2.879,2.979,4.909,3.398c2.03,0.417,4.144-0.009,5.852-1.183
	l9.974-6.85l9.202,4.199l75.421,88.778l-34.155,30.536L143.251,289.092z M58.106,460.954c-16.656,0-30.207-13.551-30.207-30.208
	V417.1h122.85v7.964c0,4.21,3.413,7.623,7.623,7.623h23.186c-0.559,3.359-0.871,6.788-0.926,10.262
	c-0.098,6.166,0.634,12.202,2.113,18.005H58.106V460.954z M471.603,298.448L287.257,479.895c-0.071,0.07-0.142,0.142-0.211,0.215
	c-9.855,10.5-23.212,16.409-37.611,16.637c-14.399,0.253-27.938-5.254-38.121-15.437s-15.665-23.721-15.437-38.12
	c0.228-14.369,6.113-27.702,16.573-37.551l161.903-144.745l10.171-8.719c0.57-0.489,1.059-1.056,1.458-1.678l19.642-17.56
	c0.046-0.042,0.091-0.083,0.136-0.125c8.362-7.848,18.784-12.029,29.345-12.598h5.105c11.002,0.622,21.817,5.17,30.269,13.623
	C488.311,251.669,488.796,280.021,471.603,298.448z"/>
<path d="M425.706,249.814c-3.846,3.846-5.963,8.959-5.963,14.397c0,5.439,2.117,10.551,5.963,14.397
	c3.969,3.969,9.183,5.953,14.397,5.953s10.428-1.984,14.397-5.953l0,0c3.846-3.846,5.963-8.959,5.963-14.397
	c0-5.439-2.117-10.551-5.963-14.398C446.562,241.876,433.644,241.874,425.706,249.814z M443.72,267.826
	c-1.993,1.994-5.24,1.995-7.234,0c-0.966-0.967-1.498-2.25-1.498-3.616c0-1.366,0.532-2.651,1.498-3.616
	c0.997-0.997,2.307-1.496,3.617-1.496s2.62,0.498,3.617,1.495c0.966,0.967,1.498,2.25,1.498,3.617
	C445.218,265.577,444.687,266.861,443.72,267.826z"/>
<path d="M245.951,426.312c-5.439,0-10.551,2.117-14.397,5.963s-5.963,8.959-5.963,14.397s2.117,10.551,5.963,14.397
	c3.846,3.846,8.959,5.963,14.397,5.963c5.439,0,10.551-2.117,14.397-5.963c3.846-3.846,5.964-8.959,5.964-14.397
	s-2.118-10.552-5.964-14.397C256.503,428.43,251.39,426.312,245.951,426.312z M249.568,450.289L249.568,450.289
	c-0.967,0.967-2.25,1.498-3.616,1.498c-1.366,0-2.651-0.532-3.617-1.498c-0.966-0.967-1.498-2.25-1.498-3.616
	s0.532-2.651,1.498-3.617c0.967-0.966,2.25-1.498,3.617-1.498c1.366,0,2.65,0.532,3.616,1.498c0.967,0.966,1.498,2.25,1.498,3.616
	C251.066,448.039,250.534,449.323,249.568,450.289z"/>
</svg>